<?xml version="1.0" encoding="utf-8"?>
<!-- Generator: Adobe Illustrator 16.0.3, SVG Export Plug-In . SVG Version: 6.00 Build 0)  -->
<!DOCTYPE svg PUBLIC "-//W3C//DTD SVG 1.1//EN" "http://www.w3.org/Graphics/SVG/1.1/DTD/svg11.dtd">
<svg version="1.1" id="Layer_1" xmlns="http://www.w3.org/2000/svg" xmlns:xlink="http://www.w3.org/1999/xlink" x="0px" y="0px"
	 width="396px" height="301.681px" viewBox="-89.28 137.72 396 301.681" enable-background="new -89.28 137.72 396 301.681"
	 xml:space="preserve">
<path fill="#010181" d="M-38.081,406.087c0-82.126,0-164.05,0-246.236c81.957,0,163.837,0,245.946,0c0,82.037,0,164.031,0,246.236
	C126.035,406.087,44.15,406.087-38.081,406.087z M131.693,282.881c0.412-28.353-23.127-48.926-49.278-47.42
	c-23.646,1.36-43.845,18.82-44.639,47.447c-0.66,23.808,20.054,48.127,46.935,47.08c14.091-0.551,25.686-5.217,35.122-15.272
	C128.16,305.838,131.418,294.85,131.693,282.881z"/>
<path fill="#0051FE" d="M238.396,380.783c-0.002-5.896-0.002-11.795-0.004-17.69c1.742-1.761-1.418-6.145,3.685-6.284
	c-2.571,0.18-3.153-0.936-3.101-3.06c0.145-5.854,0.195-11.718,0.053-17.571c-0.057-2.338,0.562-3.629,3.414-3.695
	c-4.562,0.16-3-3.058-3.416-5.11c5.77-0.331,11.537-0.331,17.306,0c-0.08,1.411-0.162,2.823-0.251,4.368
	c-1.247,0.212-2.332,0.396-3.828,0.648c1.441,0.846,2.857,0.075,3.82,1.18c0,7.545,0,15.145,0,22.811
	c-1.275,0.167-2.293,0.301-3.502,0.459c1.193,0.878,2.65-0.057,3.488,1.03c0.81,1.692-0.358,3.667,0.906,5.229
	c-0.001,5.899-0.002,11.801-0.003,17.701c-1.185,0.455-2.577-0.189-3.756,0.682c2.739,0.738,2.926,0.734,2.952,1.883
	c0.089,3.888,0.033,7.777,0.033,11.644c-5.988,0-11.293,0-17.016,0c0-3.325,0.182-6.42-0.061-9.481
	c-0.184-2.326,0.312-3.838,2.785-4.351C240.734,381.044,239.564,380.913,238.396,380.783z"/>
<path fill="#D3FE2B" d="M238.48,277.962c-0.002-3.064-0.004-6.128-0.006-9.194c1.217-2.139,0.562-4.47,0.485-6.674
	c-0.081-2.281,0.392-3.701,3.765-3.707c-3.652-0.822-3.676-0.821-3.707-3.584c-0.045-4.196-0.058-8.393-0.084-12.589
	c1.162-2.793-2.425-7.292,3.356-8.565c-4.533,0.184-2.62-3.178-3.228-5.099c5.744,0,11.488,0,17.233,0
	c-0.438,2.114,1.017,5.294-3.415,5.393c2.902-0.069,3.663,1.244,3.438,3.604c-0.146,1.539,0.06,3.111,0.106,4.668
	c-0.026,4.061-0.165,8.125-0.034,12.18c0.073,2.304-0.182,4.017-3.347,3.955c2.942-0.101,3.41,1.331,3.325,3.642
	c-0.167,4.535-0.051,9.08-0.053,13.622c-0.369,2.101,0.231,4.297-0.445,6.119c-1.253,1.035-2.895-0.17-3.801,1.247
	c-3.117,0.016-6.234,0.03-9.354,0.046c-0.71-1.434-2.562-0.158-3.312-1.344C238.943,280.428,239.648,278.966,238.48,277.962z"/>
<path fill="#37FEC7" d="M242.721,283.024c3.118-0.016,6.235-0.03,9.354-0.043c1.562,0.702,3.759-0.314,4.812,1.775
	c-0.007,2.916-0.013,5.832-0.021,8.746c-0.791,3.406-0.319,6.866-0.326,10.296c-0.005,2.235-0.47,3.63-3.226,3.531
	c2.697-0.269,3.238,1.019,3.179,3.233c-0.154,5.601-0.119,11.205-0.159,16.809c-5.77-0.331-11.536-0.331-17.305-0.004
	c-0.04-5.604-0.006-11.206-0.158-16.803c-0.061-2.211,0.473-3.506,1.85-3.265c-1.914,0.523-1.816-1.444-1.869-3.508
	c-0.072-2.714,0.41-5.459-0.361-8.142c-0.008-2.93-0.018-5.86-0.024-8.792c1.152-0.809,0.291-2.327,1.216-3.342
	C240.637,283.363,241.678,283.193,242.721,283.024z"/>
<path fill="#B10000" d="M238.43,200.406c0-13.521,0-27.043,0-40.722c6.205,0,12.247,0,18.504,0c0,13.692,0,27.208,0,40.722
	c-0.186,0.039-0.369,0.078-0.556,0.116c0-5.225,0-10.448,0-15.708c-3.481-0.074-6.071-1.095-8.88-1.034
	c-2.775,0.059-5.337,0.949-8.516,1.144c0,5.337,0,10.469,0,15.6C238.798,200.484,238.613,200.444,238.43,200.406z"/>
<path fill="#010181" d="M238.396,380.783c1.168,0.13,2.338,0.261,3.508,0.391c-2.475,0.514-2.969,2.023-2.785,4.35
	c0.24,3.062,0.061,6.156,0.061,9.482c5.723,0,11.026,0,17.016,0c0-3.865,0.056-7.756-0.033-11.643
	c-0.026-1.148-0.213-1.146-2.952-1.883c1.179-0.873,2.571-0.228,3.756-0.683c0,8.364,0,16.729,0,25.298c-6.139,0-12.185,0-18.567,0
	C238.396,397.691,238.396,389.236,238.396,380.783z"/>
<path fill="#0070B8" d="M256.333,327.371c0.04-5.604,0.005-11.208,0.159-16.809c0.061-2.215-0.48-3.502-3.18-3.233
	c2.758,0.099,3.222-1.296,3.227-3.531c0.007-3.43-0.465-6.89,0.326-10.296c0.035,23.199,0.068,46.396,0.103,69.596
	c-1.266-1.562-0.098-3.537-0.905-5.229c-0.84-1.087-2.295-0.152-3.49-1.03c1.21-0.158,2.228-0.292,3.503-0.459
	c0-7.666,0-15.266,0-22.811c-0.964-1.104-2.378-0.334-3.82-1.18c1.496-0.254,2.581-0.438,3.828-0.648
	C256.171,330.193,256.253,328.782,256.333,327.371z"/>
<path fill="#0070B8" d="M238.488,295.65c0.771,2.684,0.289,5.429,0.361,8.143c0.053,2.062-0.045,4.031,1.868,3.508
	c-1.376-0.242-1.909,1.055-1.849,3.264c0.152,5.598,0.117,11.199,0.158,16.804c0.416,2.058-1.147,5.274,3.414,5.114
	c-2.852,0.066-3.469,1.357-3.412,3.695c0.143,5.854,0.091,11.717-0.055,17.571c-0.053,2.124,0.529,3.237,3.102,3.06
	c-5.102,0.141-1.941,4.523-3.684,6.284C238.426,340.611,238.457,318.132,238.488,295.65z"/>
<path fill="#BA5C00" d="M256.379,200.524c0.186-0.04,0.369-0.08,0.555-0.118c-0.006,13.875-0.01,27.75-0.014,41.625
	c-0.178,0.027-0.341,0.088-0.492,0.184c-0.048-1.557-0.253-3.129-0.105-4.668c0.225-2.359-0.536-3.673-3.438-3.604
	c4.433-0.099,2.976-3.279,3.416-5.394c0.007-5.239-0.12-10.481,0.085-15.711c0.09-2.289-0.81-3.255-3.141-3.622
	c2.889,0.295,3.238-1.249,3.121-3.336C256.266,204.1,256.366,202.309,256.379,200.524z"/>
<path fill="#BA5C00" d="M238.43,200.406c0.184,0.039,0.368,0.078,0.553,0.116c1.029,2.955-2.439,7.348,3.051,9.101
	c-2.771-0.402-3.065,1.117-3.023,3.214c0.104,5.236,0.047,10.476,0.055,15.713c0.607,1.921-1.306,5.283,3.229,5.099
	c-5.781,1.273-2.195,5.771-3.355,8.563c-0.151-0.097-0.315-0.158-0.494-0.183C238.438,228.155,238.434,214.281,238.43,200.406z"/>
<path fill="#A1B818" d="M256.428,242.214c0.151-0.096,0.314-0.157,0.492-0.184c-0.003,11.261-0.007,22.524-0.01,33.787
	c-0.227,0.017-0.422-0.053-0.59-0.205c0-4.542-0.115-9.086,0.052-13.622c0.085-2.311-0.383-3.743-3.325-3.642
	c3.165,0.062,3.42-1.65,3.348-3.955C256.264,250.339,256.4,246.275,256.428,242.214z"/>
<path fill="#A1B818" d="M238.441,242.029c0.178,0.025,0.342,0.086,0.492,0.183c0.026,4.198,0.039,8.394,0.084,12.59
	c0.031,2.763,0.055,2.762,3.707,3.584c-3.373,0.005-3.846,1.426-3.765,3.707c0.076,2.205,0.731,4.535-0.485,6.674
	C238.464,259.856,238.453,250.942,238.441,242.029z"/>
<path fill="#63BA58" d="M256.32,275.612c0.168,0.152,0.363,0.222,0.59,0.205c-0.008,2.977-0.016,5.957-0.023,8.937
	c-1.054-2.088-3.25-1.072-4.812-1.774c0.906-1.419,2.547-0.214,3.8-1.249C256.552,279.91,255.951,277.713,256.32,275.612z"/>
<path fill="#63BA58" d="M242.721,283.024c-1.043,0.169-2.085,0.339-3.041,0.495c-0.925,1.015-0.062,2.533-1.216,3.342
	c0.007-2.964,0.013-5.93,0.019-8.897c1.166,1.003,0.461,2.464,0.926,3.716C240.158,282.866,242.012,281.59,242.721,283.024z"/>
<path fill="#0051FE" d="M131.693,282.881c-0.275,11.967-3.533,22.957-11.86,31.833c-9.437,10.058-21.031,14.724-35.122,15.272
	c-26.881,1.048-47.595-23.271-46.935-47.08c0.794-28.626,20.993-46.086,44.639-47.447
	C108.566,233.956,132.105,254.529,131.693,282.881z M84.919,314.91c18.389,0.426,31.796-15.018,31.772-31.556
	c-0.028-18.998-13.848-32.508-32.148-32.401c-17.169,0.1-31.001,13.714-31.403,31.813C52.756,300.068,67.889,315.495,84.919,314.91z
	"/>
<path fill="#FE4300" d="M239.062,228.55c-0.008-5.237,0.049-10.477-0.055-15.713c-0.042-2.097,0.251-3.616,3.023-3.214
	c-5.49-1.753-2.021-6.146-3.051-9.101c0-5.129,0-10.26,0-15.598c3.18-0.195,5.74-1.085,8.517-1.144
	c2.81-0.062,5.397,0.96,8.88,1.034c0,5.26,0,10.482,0,15.708c-0.012,1.787-0.111,3.578-0.014,5.357
	c0.117,2.087-0.232,3.631-3.121,3.336c2.331,0.367,3.23,1.333,3.141,3.622c-0.205,5.23-0.078,10.473-0.085,15.711
	C250.553,228.55,244.809,228.55,239.062,228.55z"/>
<path fill="#37FEC7" d="M84.919,314.91c-17.03,0.585-32.163-14.842-31.779-32.143c0.402-18.1,14.234-31.714,31.403-31.813
	c18.301-0.107,32.12,13.403,32.148,32.401C116.715,299.895,103.308,315.336,84.919,314.91z M84.548,257.417
	c-12.037,0.37-25.942,12.159-25.192,25.692c0.719,12.995,11.307,24.733,25.751,25.165c14.196,0.422,24.667-12.5,24.877-25.508
	C110.184,270.47,96.824,256.538,84.548,257.417z"/>
<path fill="#D3FE2B" d="M84.548,257.417c12.276-0.879,25.636,13.054,25.437,25.348c-0.211,13.008-10.681,25.93-24.877,25.508
	c-14.444-0.432-25.032-12.17-25.751-25.165C58.606,269.575,72.511,257.787,84.548,257.417z M84.609,265.719
	c-2.359-0.072-4.831,0.125-7.335,1.397c-9.483,4.82-12.708,17.115-6.767,25.741c1.636,2.375,4.465,2.082,6.289,3.783
	c4.984,4.647,11.5,5.193,17.46,1.502c5.623-3.479,9.585-12.687,7.944-18.708C99.9,270.993,92.569,264.851,84.609,265.719z"/>
<path fill="#FE4300" d="M84.609,265.719c7.959-0.868,15.291,5.274,17.591,13.716c1.641,6.022-2.321,15.229-7.944,18.709
	c-5.961,3.69-12.476,3.146-17.46-1.504c-1.824-1.701-4.653-1.406-6.289-3.783c-5.941-8.625-2.716-20.92,6.767-25.74
	C79.778,265.844,82.25,265.647,84.609,265.719z M95.076,282.895c0.504-6.337-4.97-10.146-10.347-10.478
	c-5.88-0.363-10.704,4.579-10.574,10.683c0.126,5.921,4.29,9.859,10.609,9.989C90.793,293.214,95.039,289.869,95.076,282.895z"/>
<path fill="#B10000" d="M95.076,282.895c-0.037,6.975-4.283,10.319-10.312,10.194c-6.319-0.13-10.483-4.067-10.609-9.989
	c-0.13-6.104,4.693-11.045,10.574-10.683C90.106,272.749,95.581,276.557,95.076,282.895z"/>
</svg>
